ply
format ascii 1.0
element vertex 105
property float x
property float y
property float z
property uchar red
property uchar green
property uchar blue
end_header
-0.4481492393543799 0.18378341197674322 0.6620972527582226 198 207 212
-0.22633347471237952 0.0014000781362855659 0.7762322276788604 169 184 187
-0.19945152419033396 -0.3491259118192827 1.295443355464955 89 74 69
-0.15316048479906505 -0.3500162648355021 1.3803283900828396 89 72 65
-0.37033925176842897 0.2077836516323749 0.8625884002015909 155 148 142
-0.022139947501149712 0.07375987391322518 0.41500026251508354 58 31 24
-0.08447434977151301 0.18811028385258768 0.6493760909499866 187 190 195
-0.024657316977909582 0.25981982323966923 0.7377075805038826 43 29 18
0.09765676233130352 -0.4920185605281698 1.2672284175720208 95 85 83
-0.5300149281567469 -0.4745762421680897 0.8965580758025418 118 105 89
-0.16809689437845837 0.2516647016956246 0.7174241153444345 147 136 140
-0.3818995028807481 0.39350691602972193 0.5668329147780822 55 24 32
-0.2736534023763372 0.24694062435923114 0.6947816366991875 135 122 129
0.06476180548346853 0.09131723546545134 0.48881567927659314 50 41 32
-0.02527333689533883 0.06279579837493515 0.5560937702190508 153 141 151
-0.4229704038377312 -0.10192081433844498 1.0847268889416442 131 128 119
-0.12537550568014424 0.1381781883178627 0.48350982423360167 100 89 83
-0.10621633085044606 0.13071902952652042 0.514790025217755 88 77 85
-0.19623595564529717 0.021549903309137534 0.5689101462764007 37 20 13
-0.09013882228723305 0.2893291888858955 0.7622274267110697 30 23 15
-0.23390909527903747 0.13552090455174529 0.5334322612048038 79 64 69
-0.1206428754022695 0.0978099860764074 0.4514700522770194 75 60 57
-0.10000640216087475 0.29639060586961025 0.6588451928864341 61 51 42
-0.23299097420320392 0.24368378243230615 0.7986827712416188 132 129 136
0.0016438521878608715 0.33210426750445676 0.8227065957725572 151 157 157
-0.29625961663119715 0.2210604766954068 0.6539355978081455 122 136 137
-0.2071012635781249 -0.3102209609670401 1.09547715273612 76 69 63
-0.08846983401067257 0.07954232978903099 0.48191857137163596 77 57 50
0.048961819610964664 -0.5402426299017871 1.633724750319191 153 144 135
-0.15708660822345563 0.28658294823901526 0.5566311425767464 166 164 177
-0.09851565125800213 0.20541767139544354 0.5104734459711815 100 93 101
-0.04387832280063039 0.023481219062324594 0.7066118124246451 100 84 87
-0.021357189867717584 -0.054563010378989196 0.41468678863011027 134 139 142
-0.1316662581557909 0.24920970976519857 0.5320119701872932 172 191 208
-0.04573908156101001 0.014359064165789446 0.4927237894368364 49 29 22
-0.2330717923114073 0.036615610160707704 0.48530386912436524 91 75 62
-0.26690064203529607 0.2807555994638135 0.7316557946848181 148 137 141
-0.037346938876944805 0.03421467082966806 0.5932104038584024 158 146 150
-0.08370438393583494 -0.028450726722675224 0.6450808020712023 42 12 12
-0.2747561951761238 0.17268187317179834 0.7685023224573683 101 92 85
-0.15300620893682307 0.18042929252630213 0.4835205918393718 68 49 51
0.07134000191518375 0.014448265387416183 0.5096914440634593 130 142 154
-0.21381142466900716 -0.20856470458435006 1.35290505240118 117 104 96
-0.16765790528546803 0.13367872395648403 0.5644719661853624 146 136 145
-0.24768295160308104 0.222702437539944 0.584431935104928 37 21 21
-0.15604790161148735 0.13929927177763118 0.6065148140924509 66 37 39
-0.0008955382324508412 0.00019170505689783559 0.6411755698267801 73 51 53
-0.19214330580707212 0.10266133684308132 0.4321199898134046 127 130 135
-0.015542056681849685 -0.2564109457246861 1.3776248784340914 134 125 110
-0.07826183200126431 0.07402004619688542 0.5233770347299784 184 184 192
-0.06692559050421097 -0.044408795703016986 0.6616116095718181 140 124 124
-0.15260036443571073 -0.1284354610770958 0.7304175801614466 153 164 166
-0.17750194828151006 0.18809919673128456 0.5451086259433539 121 110 118
-0.011160800070361928 -0.02454087511198087 0.6384302920023378 69 48 47
-0.10887804739212915 0.16656079674664112 0.41825727869381735 53 28 21
-0.09539694877873187 0.09475969786297403 0.45202556694041257 54 39 32
-0.04332596262857173 0.045682503216028375 0.4682650295912298 46 28 24
-0.22354472468631523 0.13979893986731057 0.4896729339079903 165 165 173
-0.04954261441518408 -0.07120384533059379 0.6375971561003025 75 61 60
-0.2314644476953016 -0.07808781540079171 0.695135295765062 144 150 148
-0.03232006366865173 0.021690679349188335 0.5800837761765173 169 158 162
-0.10343181778126585 -0.0817754644793786 0.5607068355800585 40 25 20
0.011958961038128732 0.019025042782069172 1.0930511325981667 131 125 129
-0.1270018364059774 0.21071647815395306 0.5601054684841956 83 64 68
-0.43936868979749966 0.03706059956121144 0.8755083324459255 181 186 180
-0.08243914613002361 -0.04887046544602202 0.658375962495907 72 53 55
-0.17516528062593723 0.017609690607354265 0.5205634497365287 105 91 90
0.04351022544228108 0.02419208618872354 0.5413002676756181 139 146 162
-0.17961356776534484 0.22961333819605745 0.7833446978616633 53 29 25
-0.2348442084446331 0.1904829955192192 0.5791593316624483 104 83 80
0.05525927984927643 -0.17771525222414222 1.1320247466256221 152 142 143
-0.28394496873957414 0.0646373968536229 1.0390602429830709 152 145 137
-0.06368143713797336 0.0502427505890059 0.5473260150313971 116 108 106
-0.16160181738817134 0.14778474215689458 0.47011022624145316 42 27 24
-0.27520489026304745 0.2717244994752987 0.7258556021077353 57 29 25
-0.12635000711941172 0.08745648238494158 0.522177472801624 101 74 83
0.0286868726559518 -0.03325793745275829 0.5893337340611768 60 37 47
-0.2691122387263062 0.20259813105745664 0.648155297909086 139 140 132
-0.0435284180907845 -0.02936248208563913 0.4336309592255656 104 105 107
0.04399249872822438 -0.01699360583401833 0.5924526925218914 110 97 114
-0.20758073105530025 0.11316714649986309 0.5845401358061127 140 137 148
-0.37838013378670643 0.1515191757507923 0.8554456096555145 74 63 57
0.03596097601502028 -0.0478393707831114 0.9301761450406716 78 41 33
-0.11499083779833966 -0.028772376639549218 0.5011652079519096 119 98 97
-0.2196452226620114 0.04112404599621004 0.5451981507033057 86 71 64
-0.03526494478004622 0.06327333548535918 0.5911931311259672 85 64 69
-0.01528191297519521 -0.013433276589285755 0.4380947536863411 46 27 31
-0.12421121386827763 0.20942114456400046 0.6383469797359351 36 12 8
-0.18327161043713586 0.10617807711517308 0.5575368510437922 80 64 74
-0.16697267092986257 0.054373014337116415 0.4672367785182352 92 77 70
-0.00019727202341562628 0.06240242668974832 0.5338896826499844 118 130 144
-0.18076720063530105 0.03244931350139 0.5334332173747303 11 0 0
-0.1818337132088777 0.15155596976750194 0.487170603184318 45 28 21
-0.18298074488687682 0.037774795891988296 0.48306524037187076 121 106 99
-0.3437188965560893 -0.13119696043335766 1.0606945802425083 126 118 115
-0.055239308411610406 0.00412962492877193 0.619635093832596 154 135 137
-0.022282162311499494 0.05562803277436306 0.5217121837059823 149 139 140
0.007919857072763036 0.031219915562329097 0.8530834973453328 86 47 42
-0.14505548282238356 0.0069949906550125915 0.5844507720610853 174 167 175
-0.06527252180861057 0.08921595017126792 0.4813662676972513 47 46 44
-0.024852925670637266 -0.061571280223060194 0.5357387229577427 78 46 49
-0.41461836609500186 -0.22256034296720054 1.2987366612016815 143 149 147
-0.19632013446913962 0.02598233484204201 0.5311408488182466 95 76 72
-0.1932354876567196 0.18991739746896893 0.7391212442016829 43 16 9
0.024343922212606794 -0.0027155135352059825 0.3394027687291929 45 36 29
