ply
format ascii 1.0
element vertex 586
property float x
property float y
property float z
property uchar red
property uchar green
property uchar blue
end_header
-0.4481492393543799 0.18378341197674322 0.6620972527582226 198 207 212
-0.22633347471237952 0.0014000781362855659 0.7762322276788604 169 184 187
-0.19945152419033396 -0.3491259118192827 1.295443355464955 89 74 69
-0.15316048479906505 -0.3500162648355021 1.3803283900828396 89 72 65
-0.37033925176842897 0.2077836516323749 0.8625884002015909 155 148 142
-0.022139947501149712 0.07375987391322518 0.41500026251508354 58 31 24
-0.08447434977151301 0.18811028385258768 0.6493760909499866 187 190 195
-0.024657316977909582 0.25981982323966923 0.7377075805038826 43 29 18
0.09765676233130352 -0.4920185605281698 1.2672284175720208 95 85 83
-0.5300149281567469 -0.4745762421680897 0.8965580758025418 118 105 89
-0.16809689437845837 0.2516647016956246 0.7174241153444345 147 136 140
-0.3818995028807481 0.39350691602972193 0.5668329147780822 55 24 32
-0.2736534023763372 0.24694062435923114 0.6947816366991875 135 122 129
0.06476180548346853 0.09131723546545134 0.48881567927659314 50 41 32
-0.02527333689533883 0.06279579837493515 0.5560937702190508 153 141 151
-0.4229704038377312 -0.10192081433844498 1.0847268889416442 131 128 119
-0.12537550568014424 0.1381781883178627 0.48350982423360167 100 89 83
-0.10621633085044606 0.13071902952652042 0.514790025217755 88 77 85
-0.19623595564529717 0.021549903309137534 0.5689101462764007 37 20 13
-0.09013882228723305 0.2893291888858955 0.7622274267110697 30 23 15
-0.23390909527903747 0.13552090455174529 0.5334322612048038 79 64 69
-0.1206428754022695 0.0978099860764074 0.4514700522770194 75 60 57
-0.10000640216087475 0.29639060586961025 0.6588451928864341 61 51 42
-0.23299097420320392 0.24368378243230615 0.7986827712416188 132 129 136
0.0016438521878608715 0.33210426750445676 0.8227065957725572 151 157 157
-0.29625961663119715 0.2210604766954068 0.6539355978081455 122 136 137
-0.2071012635781249 -0.3102209609670401 1.09547715273612 76 69 63
-0.08846983401067257 0.07954232978903099 0.48191857137163596 77 57 50
0.048961819610964664 -0.5402426299017871 1.633724750319191 153 144 135
-0.15708660822345563 0.28658294823901526 0.5566311425767464 166 164 177
-0.09851565125800213 0.20541767139544354 0.5104734459711815 100 93 101
-0.04387832280063039 0.023481219062324594 0.7066118124246451 100 84 87
-0.021357189867717584 -0.054563010378989196 0.41468678863011027 134 139 142
-0.1316662581557909 0.24920970976519857 0.5320119701872932 172 191 208
-0.04573908156101001 0.014359064165789446 0.4927237894368364 49 29 22
-0.2330717923114073 0.036615610160707704 0.48530386912436524 91 75 62
-0.26690064203529607 0.2807555994638135 0.7316557946848181 148 137 141
-0.037346938876944805 0.03421467082966806 0.5932104038584024 158 146 150
-0.08370438393583494 -0.028450726722675224 0.6450808020712023 42 12 12
-0.2747561951761238 0.17268187317179834 0.7685023224573683 101 92 85
-0.15300620893682307 0.18042929252630213 0.4835205918393718 68 49 51
0.07134000191518375 0.014448265387416183 0.5096914440634593 130 142 154
-0.21381142466900716 -0.20856470458435006 1.35290505240118 117 104 96
-0.16765790528546803 0.13367872395648403 0.5644719661853624 146 136 145
-0.24768295160308104 0.222702437539944 0.584431935104928 37 21 21
-0.15604790161148735 0.13929927177763118 0.6065148140924509 66 37 39
-0.0008955382324508412 0.00019170505689783559 0.6411755698267801 73 51 53
-0.19214330580707212 0.10266133684308132 0.4321199898134046 127 130 135
-0.015542056681849685 -0.2564109457246861 1.3776248784340914 134 125 110
-0.07826183200126431 0.07402004619688542 0.5233770347299784 184 184 192
-0.06692559050421097 -0.044408795703016986 0.6616116095718181 140 124 124
-0.15260036443571073 -0.1284354610770958 0.7304175801614466 153 164 166
-0.17750194828151006 0.18809919673128456 0.5451086259433539 121 110 118
-0.011160800070361928 -0.02454087511198087 0.6384302920023378 69 48 47
-0.10887804739212915 0.16656079674664112 0.41825727869381735 53 28 21
-0.09539694877873187 0.09475969786297403 0.45202556694041257 54 39 32
-0.04332596262857173 0.045682503216028375 0.4682650295912298 46 28 24
-0.22354472468631523 0.13979893986731057 0.4896729339079903 165 165 173
-0.04954261441518408 -0.07120384533059379 0.6375971561003025 75 61 60
-0.2314644476953016 -0.07808781540079171 0.695135295765062 144 150 148
-0.03232006366865173 0.021690679349188335 0.5800837761765173 169 158 162
-0.10343181778126585 -0.0817754644793786 0.5607068355800585 40 25 20
0.011958961038128732 0.019025042782069172 1.0930511325981667 131 125 129
-0.1270018364059774 0.21071647815395306 0.5601054684841956 83 64 68
-0.43936868979749966 0.03706059956121144 0.8755083324459255 181 186 180
-0.08243914613002361 -0.04887046544602202 0.658375962495907 72 53 55
-0.17516528062593723 0.017609690607354265 0.5205634497365287 105 91 90
0.04351022544228108 0.02419208618872354 0.5413002676756181 139 146 162
-0.17961356776534484 0.22961333819605745 0.7833446978616633 53 29 25
-0.2348442084446331 0.1904829955192192 0.5791593316624483 104 83 80
0.05525927984927643 -0.17771525222414222 1.1320247466256221 152 142 143
-0.28394496873957414 0.0646373968536229 1.0390602429830709 152 145 137
-0.06368143713797336 0.0502427505890059 0.5473260150313971 116 108 106
-0.16160181738817134 0.14778474215689458 0.47011022624145316 42 27 24
-0.27520489026304745 0.2717244994752987 0.7258556021077353 57 29 25
-0.12635000711941172 0.08745648238494158 0.522177472801624 101 74 83
0.0286868726559518 -0.03325793745275829 0.5893337340611768 60 37 47
-0.2691122387263062 0.20259813105745664 0.648155297909086 139 140 132
-0.0435284180907845 -0.02936248208563913 0.4336309592255656 104 105 107
0.04399249872822438 -0.01699360583401833 0.5924526925218914 110 97 114
-0.20758073105530025 0.11316714649986309 0.5845401358061127 140 137 148
-0.37838013378670643 0.1515191757507923 0.8554456096555145 74 63 57
0.03596097601502028 -0.0478393707831114 0.9301761450406716 78 41 33
-0.11499083779833966 -0.028772376639549218 0.5011652079519096 119 98 97
-0.2196452226620114 0.04112404599621004 0.5451981507033057 86 71 64
-0.03526494478004622 0.06327333548535918 0.5911931311259672 85 64 69
-0.01528191297519521 -0.013433276589285755 0.4380947536863411 46 27 31
-0.12421121386827763 0.20942114456400046 0.6383469797359351 36 12 8
-0.18327161043713586 0.10617807711517308 0.5575368510437922 80 64 74
-0.16697267092986257 0.054373014337116415 0.4672367785182352 92 77 70
-0.00019727202341562628 0.06240242668974832 0.5338896826499844 118 130 144
-0.18076720063530105 0.03244931350139 0.5334332173747303 11 0 0
-0.1818337132088777 0.15155596976750194 0.487170603184318 45 28 21
-0.18298074488687682 0.037774795891988296 0.48306524037187076 121 106 99
-0.3437188965560893 -0.13119696043335766 1.0606945802425083 126 118 115
-0.055239308411610406 0.00412962492877193 0.619635093832596 154 135 137
-0.022282162311499494 0.05562803277436306 0.5217121837059823 149 139 140
0.007919857072763036 0.031219915562329097 0.8530834973453328 86 47 42
-0.14505548282238356 0.0069949906550125915 0.5844507720610853 174 167 175
-0.06527252180861057 0.08921595017126792 0.4813662676972513 47 46 44
-0.024852925670637266 -0.061571280223060194 0.5357387229577427 78 46 49
-0.41461836609500186 -0.22256034296720054 1.2987366612016815 143 149 147
-0.19632013446913962 0.02598233484204201 0.5311408488182466 95 76 72
-0.1932354876567196 0.18991739746896893 0.7391212442016829 43 16 9
0.024343922212606794 -0.0027155135352059825 0.3394027687291929 45 36 29
0.02157535904332748 -0.0890714661071784 0.5205169515183111 148 134 121
-0.0007674338925778326 -0.15996606805864713 0.5229803037501181 28 11 1
-0.03861084248423214 0.202195546286531 0.42461095750024613 48 40 37
-0.15203552353186828 0.16212256691353732 0.47242393822316153 126 123 132
0.007909836859133627 -0.16224185224686405 0.6007674962979715 34 20 9
-0.22892473207598465 0.028961894054797342 0.5871740452986853 80 75 72
-0.10344478477077745 0.05531870575600793 0.549451509002031 33 18 11
0.003911124064292864 -0.15608075190742085 0.5193558719593424 138 120 110
-0.22196510726412433 -0.21877039188570138 0.7160518625754967 86 86 78
-0.20572163786711717 -0.04185707315162977 0.579522039028752 107 99 86
0.022824619681138362 -0.06487851364316052 0.5212235730488218 50 33 23
0.0014371447827495893 0.08206012475054163 0.47149372706946174 64 54 55
-0.10241893386144384 0.05357541616312386 0.550235497758537 132 117 112
-0.041450456723465284 0.09310981224850208 0.4851205211511572 60 37 29
-0.10314096114289355 0.0560422124503633 0.548949209154105 122 104 100
0.03358702133151825 0.10673662046971338 0.45831161516247704 13 0 0
-0.055296756118998126 -0.019945290097734852 0.5706811468225839 120 101 94
-0.10415242683889407 0.054747581518846046 0.550032274173334 119 104 99
-0.016124895634099867 0.15072724394112563 0.4468450348765076 99 82 72
-0.28198245120290183 -0.05121241886497791 0.6526643321055987 86 86 88
-0.11836197961431462 0.09349671514940153 0.43536769426133154 58 36 23
0.022445521572932697 -0.04771283650109445 0.5211913409394271 27 15 3
-0.0021561228441363094 -0.16411349914188392 0.5229560320218 133 114 107
-0.11512822085588424 0.0929188317820965 0.5271615075974619 180 160 162
0.003275959089950986 -0.19527675364244032 0.6601045854823296 54 44 34
-0.11144444263304022 0.11026612560241231 0.5115786050982676 135 121 121
-0.114346089123933 0.08333700205989367 0.5337796646800104 158 155 150
-0.11507721610222083 0.10943737464071543 0.5137083713063743 180 180 178
-0.14916358294725154 0.20121128380528525 0.4367755926419348 92 60 45
-0.2224475434494238 -0.21684529348924067 0.7164042257900467 98 99 94
-0.0022178198233517837 0.08197896794991097 0.47361620408627414 73 64 65
-0.0036724169179337333 0.0840753770911968 0.4737659623092808 137 127 128
-0.1646509919627392 0.1431163267780416 0.4865488490598048 129 145 161
-0.11067266928830564 0.07106432752674387 0.5411538248793093 155 140 143
-0.10128969036859865 0.048875034351779256 0.5527510166102875 104 91 85
-0.041973509839927994 0.20888352192373982 0.4174076851074255 34 29 25
-0.11582162058158417 0.10209226353219106 0.5200343580407178 176 162 162
-0.055296756118998126 -0.019945290097734852 0.5706811468225839 120 101 94
-0.10462959326419868 0.05396088160304508 0.5505502016874348 38 23 20
-0.1712792976731714 0.12480524729108021 0.5168913954224402 163 167 178
-0.1139392275036671 0.11182368282026597 0.51125597789979 173 161 161
-0.03791945182749296 0.19035595992344623 0.4369007992910761 42 31 25
-0.10345152973485008 0.05707329037622969 0.5483977525133562 86 69 62
-0.11582162058158417 0.10209226353219106 0.5200343580407178 176 162 162
-0.10969133296128525 0.11301822656314199 0.5086133809149394 58 23 27
-0.11354489943702506 0.08466080409080987 0.53237247187167 41 11 11
-0.08126535579097784 0.22307181093874573 0.4165683277445307 58 44 33
-0.15092602747193334 -0.06457418278682564 0.6261697066582195 143 148 144
-0.11067266928830564 0.07106432752674387 0.5411538248793093 155 140 143
-0.11470040313081444 0.1074833908616818 0.5151268904546021 168 158 159
-0.10211833655062655 0.13018148357306347 0.4685798111330922 101 86 81
-0.09512717724055034 0.16306485732896825 0.47209397729905506 75 82 90
0.030752737129015592 0.11158643298165091 0.4578963161363192 49 39 29
-0.13366021806388384 0.14070667730176642 0.5728045404654172 39 29 30
-0.012288962067761186 0.020543912263613753 0.4917471175692235 156 131 126
-0.08272996180470471 0.10550423151973233 0.49729004764798307 49 26 18
-0.1148977719156823 0.08474639618053831 0.5310612683024564 45 17 16
-0.10668141759969231 0.06290624974736207 0.545864754851707 81 63 59
-0.10333962580662064 0.05368085631175566 0.5503772763591599 35 20 15
-0.11042229461197928 0.0704841459302713 0.5414761277397346 41 10 16
-0.16938742302145898 0.1353654036032572 0.5188087133257853 80 73 80
-0.10376044293613759 0.0588700145008722 0.5474300940854879 97 78 72
-0.018851113448164505 0.08377845793522633 0.5379980371059959 159 152 159
-0.0591861512651848 0.19355649942307618 0.44217177864277335 40 35 31
-0.1039006264601257 0.053016897655399194 0.5510063147023696 109 95 92
-0.08507048984423647 0.04010766579349502 0.5853956752397045 72 23 29
-0.02192241048997363 0.11019714517712521 0.5308241277749886 44 12 15
-0.049155517341781564 -0.008385902628481304 0.5469985383600984 44 24 15
-0.15837118652143709 0.20137493837026643 0.43044603273163 187 177 188
-0.14005490443425422 0.16060381729676604 0.4760282152018681 26 3 0
-0.12362446093722249 0.18389877357657497 0.46779319653713525 222 211 217
-0.25304913109702276 -0.14527981018163239 0.6727212014637388 149 149 137
-0.005251337183652471 0.04096223446930749 0.5347148593600292 116 97 91
-0.11014996123785675 0.11265615766499792 0.509117943708281 110 84 85
-0.02174159405402104 0.10978817868640063 0.515859697013316 78 54 54
-0.04996393663443327 -0.0490802658752163 0.46034231573976464 86 70 57
-0.12724570325379878 0.07508705514997929 0.5399738837219079 108 95 104
0.029415820790054906 0.13016397259899748 0.46329224506620437 79 55 53
0.02718463708781975 -0.007690768062129301 0.561219087736215 75 57 53
-0.1142094681544327 0.0827080646373031 0.534193135290457 36 7 9
-0.04917045989555272 0.10232572325764702 0.49151047131234216 125 103 92
-0.011094928767231256 -0.12222806684801568 0.7477322712841062 68 53 50
-0.0643216807317862 0.03328862980696243 0.5014555317278824 151 124 117
-0.023254877443375704 0.04133585222937752 0.4919237269679018 131 106 99
-0.06675849014098566 0.09623920876554123 0.5060754573331908 88 70 60
-0.18913100976206446 -0.13926156351478994 0.6720881262026258 112 105 97
-0.1462018372486151 0.12472049049938562 0.48375048289567624 95 84 98
-0.09051241869844262 -0.05835903981453412 0.5790094703957587 145 137 126
0.017829734446075177 0.014826386485348713 0.5048403128323327 143 119 107
-0.13781827500224686 0.1857857919286383 0.45773314011837396 145 136 129
-0.07629819495719319 0.16416307870727131 0.5443774359690128 125 101 89
-0.15781713089000873 0.18242739852986764 0.4469076934182254 115 93 80
0.023693673320376345 0.006126971671055015 0.4625570243513182 135 118 110
-0.02621008057788681 0.053016656982275895 0.5850292980635606 34 4 4
-0.13828857480845688 0.18407628337991905 0.45538679058822257 179 166 173
-0.0765583936147708 0.16499210636956696 0.5322800627051637 77 50 31
-0.11072511957258288 0.0701621317867901 0.5419042535369608 164 150 150
0.012171351116553717 -0.036643805468791264 0.48286446445518844 44 26 12
-0.08164809580385878 0.06950364880769587 0.5154942030065576 84 71 62
-0.10068918375312456 0.0424741658198792 0.5564011554001546 139 130 125
-0.10244809359703382 0.0708134348365861 0.47554301711715263 35 16 10
-0.14003951587852226 0.14551485353824414 0.48744110419841336 106 87 81
-0.10423987729458298 -0.047865165844983085 0.5361784780936799 42 29 21
-0.09593832073009542 0.09532841549164056 0.5422025391373648 88 68 67
0.013489316314439004 -0.012794265508153957 0.541648049315283 33 20 12
-0.10357971764494177 0.07932447566644385 0.5358471612896482 54 29 33
-0.296543112003312 -0.24303960345957135 0.7617923876214041 143 149 145
0.013487648817362096 -0.012770298246127642 0.5416312085518715 90 63 54
-0.11416086804894993 0.10838723115783518 0.5141656227775929 60 23 30
-0.15965881279018343 0.1285661580913916 0.4981289506213704 65 45 38
0.02378774833056767 0.02781790450114323 0.6209787962284999 58 23 29
-0.08049018290086316 0.05597071746275616 0.5040817000806178 115 95 86
-0.032492908641114863 0.04336777299407987 0.5045929652140498 102 82 75
0.08894048591717471 -0.16175240943519495 0.9922315635356638 53 61 74
0.025528706069432847 0.07337366675300147 0.7092336736428224 74 60 59
-0.09945348469522682 0.043965870291357276 0.5547924720763785 123 113 112
-0.0048146658155580144 0.07841084671796487 0.49091334396720887 137 114 106
-0.11721093389791928 0.10862234490583955 0.5152234912917507 146 134 134
-0.004310349843991083 0.027841218818277794 0.507343387314852 105 80 73
0.013257300605970364 -0.026388679390466824 0.6252884227821968 167 147 148
-0.1126179684207127 -0.05157840447237242 0.5404969706785743 41 31 22
-0.09364532127482121 0.18691399828500346 0.4553326849555512 109 97 99
-0.09604591581129358 0.10703441723847926 0.5211138248150926 127 97 99
-0.10068918375312456 0.0424741658198792 0.5564011554001546 139 130 125
-0.15106786152352303 0.1786359503079692 0.4592967280896208 182 189 205
-0.09601758604498432 -0.08087398891870393 0.5065794701425074 147 117 109
-0.11674511493837356 -0.039692782845476476 0.6016835919387529 125 113 99
0.00953718010904216 0.02490643758035009 0.6029893373992823 47 11 15
-0.10610889681832412 0.08287581699685438 0.4621855263658714 78 53 46
-0.050136246018292176 -0.027011516874596585 0.6668678933934292 71 37 35
-0.10231290802592362 0.07438910613620697 0.545123363978603 157 145 145
-0.14499941077854078 0.0925270980144483 0.4793518959446146 35 25 15
-0.10777316702221199 0.11534881624167538 0.5673777013779118 227 249 255
-0.1469703661487569 0.0763461841181034 0.5102428951358754 150 146 134
-0.11329661880812147 0.08209153829108799 0.5007996900149118 43 36 44
-0.11842864664876306 0.16001217433083298 0.4792839400306429 188 173 176
-0.11657847727008448 0.13128151132087787 0.5056820692135886 147 136 142
-0.11558400669123085 0.1482010166442436 0.49211681478120123 179 167 167
-0.11842864664876306 0.16001217433083298 0.4792839400306429 188 173 176
-0.11440129228023314 0.1454092384424413 0.4957709568069947 73 48 51
-0.1133158540011939 0.13903509481996748 0.5024507945872578 162 152 151
-0.11952186625929465 0.14532556503487204 0.49041113532792635 178 163 166
-0.12262791726807669 0.1504366868712356 0.482931755398891 160 139 146
-0.11721110008917081 0.13161030751209096 0.504620147049751 191 171 180
-0.12813680988678094 0.13060684203031644 0.493424747624637 76 50 53
-0.11919419876013243 0.15281087731462584 0.4844691837582979 172 151 158
-0.11721110008917081 0.13161030751209096 0.504620147049751 191 171 180
-0.11637851679927604 0.13202188317663394 0.5051926441536629 182 165 173
-0.1262081505841664 0.1278476480417882 0.49777230002376055 184 168 171
-0.11990773734410932 0.1471252368009081 0.48852459742857884 160 148 152
-0.11523572994429052 0.14510745230495112 0.49520664044798723 171 157 157
-0.11441232044217506 0.14337789905254675 0.4974614555339665 62 36 39
-0.1122148115708438 0.13512477323236333 0.5070520084992712 150 125 128
-0.1214405368484112 0.14983395288465912 0.484628985872775 156 141 146
-0.11472350600605918 0.14252736868551744 0.49792047624097435 153 137 138
-0.12024479727449024 0.15049556088359622 0.48536670126898634 156 139 145
-0.11877974557818648 0.15114537156011318 0.48629076115169295 61 36 42
-0.11703271544698098 0.13861928801509205 0.49875653117633306 185 183 184
-0.12432237112346517 0.1406127184892907 0.48923951506884245 182 170 174
-0.11223042793388462 0.13594413971937405 0.5063351047033611 59 34 37
-0.12006559550263789 0.15485588933081004 0.4818861953224722 67 46 51
-0.11186574917176194 0.13929960512393338 0.5038005464496789 62 33 35
-0.12291819815927127 0.1413583480795332 0.4900759957125469 74 41 50
-0.1262579546891365 0.14040614602336174 0.48728126969199353 64 33 39
-0.11702649441973227 0.14993053666206113 0.4891642819843425 179 160 164
-0.12009587456775786 0.15577840433727613 0.4810815984791125 145 126 128
-0.12013336687035911 0.1320749879044709 0.5009761496904148 158 139 143
-0.11317127134641332 0.1369223936585704 0.504405475371983 167 155 155
-0.11735799933407362 0.14926787313573317 0.48933355566804876 59 28 36
-0.12040690290126585 0.13424437500092112 0.4988370672409511 183 167 170
-0.11077390407923525 0.13548172181739898 0.5083559845920097 50 35 32
-0.11955722117746524 0.13948095203780114 0.49531304624113054 185 174 178
-0.1259046564530033 0.13886985997002063 0.4889634194508582 66 39 44
-0.12565903278703525 0.13704847710343931 0.49077871121538935 67 40 47
-0.12155423772743167 0.1525228756945449 0.4822936545845809 65 44 49
-0.11747603993790187 0.14706442310057993 0.4910777035782463 72 49 55
-0.11241549169842735 0.1380899240510489 0.5042273460904694 56 30 31
-0.12592490581190238 0.13496064209340491 0.4921522129742415 167 151 154
-0.11866694926155352 0.14515663223084666 0.49144535494979863 56 31 37
-0.1169937244583459 0.15951864119479994 0.4811430560272701 155 134 133
-0.12149398369478463 0.1325926113476372 0.49904210844554286 185 173 175
-0.11759032836525565 0.14260737003012008 0.49476845512495266 143 124 130
-0.11849223086044229 0.15469991636785632 0.4836345653091419 157 137 139
-0.11658812447506169 0.13134061089849522 0.5055193108112975 125 112 119
-0.09740924476447 0.09547344964903964 0.5716920264184346 197 198 203
-0.11317127134641332 0.1369223936585704 0.504405475371983 167 155 155
-0.11672919794781413 0.14127297148005835 0.4968150340361461 78 51 58
-0.12262791726807669 0.1504366868712356 0.482931755398891 160 139 146
-0.11928096736920633 0.15489822721780114 0.48264665788210187 61 39 42
-0.13163880080318538 0.11075776155011562 0.5056320582910985 68 39 43
-0.08517609896949058 0.09889660699204256 0.5856845969565659 170 154 165
-0.12456292182006379 0.13914942894571738 0.4901829683279423 72 37 43
-0.1227632088128522 0.14429237997510858 0.48785285348449314 174 153 158
-0.12634141338763136 0.11776229266542351 0.5061959228055839 143 125 125
-0.12177019544640133 0.1401336082343436 0.49236121441425146 171 161 162
-0.130433388266172 0.12671424807983206 0.49387882524858856 182 171 169
-0.11884689446650042 0.15837619072021275 0.48020035414769113 165 144 149
-0.12547471298436466 0.12520210473473495 0.5008243074374135 159 140 144
-0.1178673290585453 0.13417497321716768 0.5016807194486645 183 172 178
-0.11546909145431865 0.1512648205779718 0.48968791831404773 163 144 148
-0.12498485757495245 0.14023029898767694 0.48890071702993376 65 32 39
-0.11238021996035129 0.17837042961097926 0.47068061926859556 161 159 172
-0.11649524010745102 0.14251120824991645 0.49598865453321195 157 142 147
-0.1143282841093898 0.14796123236711065 0.49369895111288886 45 21 21
-0.12138273960337287 0.14889200406525413 0.4855210978482103 70 38 49
-0.11855533822457875 0.14369392800281428 0.4928132854512888 194 185 190
-0.11471696949558158 0.13385166265442847 0.5053922208772479 135 120 127
-0.1347191326401794 0.07822705081629136 0.5291393588114411 195 175 177
-0.11397526326098173 0.146338676376714 0.4954701830202731 175 159 159
-0.1143282841093898 0.14796123236711065 0.49369895111288886 45 21 21
-0.11556439965371669 0.13561554150031715 0.5030919055638522 75 52 58
-0.12103071782841122 0.14417063762842725 0.4897740254094197 66 40 49
-0.12774217308849237 0.13710067236797147 0.4884510031900563 170 154 157
-0.11818207845581466 0.15016185077567465 0.4878212087249155 66 39 46
-0.11772329783904925 0.15984148588214628 0.4801564490647145 57 37 38
-0.12196448834914146 0.1332972616398854 0.49792443051225693 79 58 63
-0.1178673290585453 0.13417497321716768 0.5016807194486645 183 172 178
-0.11135550468702375 0.1417102411216044 0.5022914240437563 132 113 107
-0.12013336687035911 0.1320749879044709 0.5009761496904148 158 139 143
-0.1193459681225402 0.13459739243563662 0.4997021609796001 195 183 185
-0.11524928267756743 0.13907389237255938 0.5002924702699609 57 40 46
-0.12824047458449278 0.1266808352505472 0.49636917018219673 186 167 171
-0.11646084094412411 0.15782112578667187 0.48305977423681595 137 116 113
-0.11569284216758277 0.14590018660264706 0.4940137692538438 63 43 45
-0.11456805445562328 0.1516222646627934 0.4903861909203781 138 119 115
-0.12335950923681709 0.15233191698059206 0.4806287305925611 55 35 37
-0.12261703727486385 0.13004769957098453 0.4999983113930989 82 53 58
-0.12774217308849237 0.13710067236797147 0.4884510031900563 170 154 157
-0.2843708106913962 -0.1686395979987857 0.679520833581513 163 174 176
-0.13357056198552267 0.10272212993115759 0.5098900137057323 63 29 28
-0.16721145223979555 -0.11897407926538531 1.0430236218314834 133 128 122
-0.12169524707641703 0.15206304683377111 0.482538124242444 164 143 150
-0.08989902317493564 0.10157339240631728 0.5751375050305081 79 52 61
-0.12880490462100097 0.1274080690538281 0.49516235555862853 70 44 47
-0.13500905073254857 0.11282949171668896 0.4997796535722788 182 172 170
-0.11930102482264761 0.16035544015587416 0.47814492712835693 60 37 45
-0.130433388266172 0.12671424807983206 0.49387882524858856 182 171 169
-0.1281062341995735 0.13592354659890454 0.4889745376162755 84 49 55
-0.1242150126419419 0.12735479357422458 0.5004174286231275 61 45 46
-0.1207557096676544 0.13221782231820645 0.5001521213298469 91 76 79
-0.13908780000185952 0.10495770778395866 0.5010192984733352 177 167 165
-0.13355796122370162 0.10131387489844297 0.5111114217585084 191 175 176
-0.12887762217680426 0.1325516593491324 0.4908671705078304 145 124 129
-0.04141105600349666 0.16763924066875902 0.6164211604646667 101 91 102
-0.10239505732751242 0.08956657894943185 0.5719544409149943 200 194 206
-0.11890709653582696 0.14734091233628657 0.4893485505079489 142 121 126
-0.13408260516497753 0.11336850998844818 0.5004714843837625 165 147 147
-0.1457266210436335 0.12094463056167144 0.4811287770713767 180 161 165
-0.11981589003131397 0.1301211408004802 0.5030479875445382 192 177 182
-0.08989902317493564 0.10157339240631728 0.5751375050305081 79 52 61
-0.12419644699917487 0.13060851559442962 0.497637164554385 193 188 192
-0.1252642844656377 0.13030069154588167 0.4967869135036811 157 145 145
-0.09001041710645023 0.10041846645192087 0.5764105603456109 161 150 156
-0.1328256480924968 0.10877432520551421 0.5057840131309704 177 162 169
-0.132390609082526 0.12206169514128144 0.4954209492574836 164 154 153
-0.0994228514468444 0.09226295608792486 0.5726475501515439 173 162 176
-0.11214603305304824 0.17940499515678437 0.4698709321412068 150 152 165
-0.13359184751273284 0.09830053677549926 0.5135297354237742 175 163 163
-0.12901187125782332 0.11917731754730246 0.5017514612388027 183 169 169
-0.12634141338763136 0.11776229266542351 0.5061959228055839 143 125 125
-0.11999525735255195 0.13463344031649185 0.4989661203494738 192 194 209
-0.11672082787483093 0.15367837533242115 0.48635710885340905 131 111 113
-0.12343376373129261 0.1518178702902487 0.4809640687570337 166 144 147
-0.1151585720510704 0.15436962229932474 0.48739847126079766 118 97 94
-0.13404051865588454 0.08593820955372969 0.5234451762541192 167 142 148
-0.11811929561001946 0.13508717831779518 0.5005827717637615 59 36 42
-0.11997919729540348 0.1346138993394679 0.49899087864549696 72 46 55
-0.14857196966549946 0.08292763910600712 0.5035739782258758 44 4 12
-0.122097279090386 0.15197582748456506 0.4822043391538936 47 26 31
-0.13489861217472907 0.0901533613692352 0.5188759014808307 71 32 37
-0.12237746684751384 0.13297063964009312 0.49776763575398253 158 146 148
-0.12687795553013603 0.12784539430027278 0.49693683025121166 202 187 190
-0.1190807048911708 0.13079440917784954 0.5032427768034545 163 144 150
-0.06314408647653645 0.12736476277949849 0.5808719224077173 55 39 52
-0.12116199817560343 0.13156899175947684 0.500284317036576 60 41 47
-0.11919419876013243 0.15281087731462584 0.4844691837582979 172 151 158
-0.12454613077631951 0.12461515339906314 0.5023618567543735 168 153 156
-0.08026613050352659 0.05986622538573407 0.7155713565178426 130 131 136
-0.1268044967648649 0.12467440566351042 0.49973261714173056 188 168 170
-0.12819996695678085 0.13297940705020123 0.4912696257741157 172 160 160
-0.13950562740660863 -0.0030922613380753787 0.5828976766557001 161 145 148
-0.13459803671626883 0.08659726129222581 0.5220303891698533 67 35 40
-0.08782625191523834 0.10080223778521992 0.5792995464471002 51 38 45
-0.11434159323261474 0.1442472365963733 0.4968324730434703 163 143 145
-0.13580412755710908 0.08917908388449002 0.5183886315316579 166 156 157
-0.13446597607566693 0.1247605185434367 0.4909660244692667 70 45 48
-1.9962459406527409 12.860906406899437 -10.074999698453365 95 99 102
-0.12454613077631951 0.12461515339906314 0.5023618567543735 168 153 156
-0.11312351167101091 0.1791296208676212 0.46932269372824514 94 93 107
-0.13408260516497753 0.11336850998844818 0.5004714843837625 165 147 147
-0.6853537142802347 0.7817671982883173 0.2148572880030363 39 23 8
-0.12111922177512595 0.14595419765972473 0.4882380346501639 80 52 64
-0.12606229436954675 0.14616909302734543 0.48297970094239945 74 45 50
-0.12083385568328202 0.14207371617749165 0.491753280280566 149 128 135
-0.12011127826940791 0.14451009938121331 0.49047175954204075 156 141 146
-0.11924525681589122 0.19842490452242317 0.5605126398605567 145 153 164
-0.13681633383898237 0.09901955144852584 0.5087738743974833 122 92 94
-0.1348523217251321 0.0918107591447812 0.5172089405969261 57 32 36
-0.11411728980333588 0.13667188543454156 0.5035898857881194 166 145 152
-0.12812564359049655 0.12762474939754312 0.495815333689589 52 27 31
-0.11724523585360748 0.14068620146184163 0.49675585956271884 63 40 46
-0.14053274793798343 0.10760649696069088 0.4971438592182241 59 23 27
-0.08088374217461593 0.10389970935838483 0.5857106717570103 50 37 47
-0.11410118897809488 0.14858465195450013 0.4934072247910359 123 107 107
-0.12081002428413491 0.14902701200498988 0.4860056076827931 62 39 47
-0.12198689352390366 0.13925221561182113 0.49284915916243166 82 55 62
-0.120048793523459 0.14048823789321518 0.5046254572269488 82 63 65
-0.11707095890200173 0.13631397972489584 0.5007100648955448 56 35 40
-0.13642957138655448 0.08950433734132625 0.517112414372212 51 25 26
-0.13579414186212554 0.1156516551918467 0.4965314180379327 176 158 158
-0.6917071960981324 1.2757461197366784 -0.05331158028947672 22 0 0
-0.11646084094412411 0.15782112578667187 0.48305977423681595 137 116 113
-0.14674602886691274 0.11567003281215767 0.48378311863154755 57 28 30
-0.11500618906135078 0.14901894027791715 0.4921029892905542 160 139 138
-0.18131221117823504 0.18155181721751318 0.41751647466526914 40 17 11
0.269980102586784 -2.280204790237007 2.701110087973438 104 92 78
-0.126710045154918 0.13761340431949634 0.48913574762529366 148 132 135
-0.11997080912057621 0.13655112020552662 0.49745397526289536 46 19 26
-0.2026402500606858 0.13621746971302198 0.4254757259357599 143 125 111
-0.1367988370659188 0.11048361226085741 0.49929928196924567 166 154 154
-0.12248325784897057 0.1525220256550831 0.4813920738294375 67 44 52
-0.14419796394774187 0.11172110219146857 0.48959329655138634 131 109 111
-0.12702377757050543 0.16845454974654522 0.46179414907300065 46 37 42
-0.11696729612632784 0.15438320844776304 0.48545158473251665 55 34 39
-0.14677301363700868 0.12225889813488224 0.47912093452041044 174 158 159
-0.08556418729834919 0.09245177580514735 0.5983585030665468 47 26 31
-0.11896700342581636 0.14911155860586223 0.48781301896601553 125 106 110
-0.11986914345457667 0.14623714746815855 0.4892420093672727 62 32 40
-0.08898118135598251 0.13675890902420454 0.5511014015422229 79 69 80
-0.16681630335372782 0.026815022614017272 0.46999370338469815 59 32 23
-0.09178828173709767 0.09729811461801889 0.577340273282233 36 19 25
-0.16040804560500704 0.21574282037754602 0.40890170853123736 60 54 58
-0.06990052589091912 0.061521009024022466 0.7236848985299876 89 88 106
-0.13861705788277012 0.11965940443467395 0.4901503786673772 65 38 43
-0.12510014980016715 0.12690158170614252 0.49981921822569775 163 144 148
-0.13225558815169783 0.1593559050224098 0.4698071499579747 56 27 31
-0.13803471287220245 0.045770525647959935 0.5523467486496595 156 139 132
-0.11278805794525583 0.17801914065752103 0.4706014836823739 78 76 89
-0.14248246504646966 0.1156083424489838 0.48860855259686553 117 91 94
-0.08753782832702577 0.16814999409772657 0.5406987413342512 149 148 164
-0.12433377339274433 0.1442207812134743 0.4862523493729534 68 43 49
-0.12677121570372973 0.07339392259109012 0.5541419040193899 170 143 136
-0.571034142345081 0.5080897733557769 0.31279455746658646 51 31 22
-0.13443510351076726 0.10044973807839602 0.5106492934421083 168 156 158
-0.1396143234199571 0.08142531493064865 0.5243676823245788 42 26 26
-0.135457631686645 0.09202416355970533 0.5164260391223777 151 135 136
-0.11028250100071486 0.18465920065799865 0.4893520792120559 39 25 22
-0.27445475000835096 0.26690671654976034 0.6072563927878637 165 163 151
-0.46745219359863777 0.42719107088518204 0.37694402651275233 27 19 16
-0.13512641939201295 0.13296234516280334 0.5050128624250758 44 32 36
-0.14368195619231555 0.11132000241632946 0.4904299381820329 157 143 142
-0.19923925469499645 0.2270847002805702 0.38393088779369156 45 30 37
-0.11167114434821229 0.17825198247050478 0.47139609387124703 85 85 95
-0.43673773810346467 0.33856821952675303 0.40905016459823007 178 181 196
-0.12527956401755705 0.1340649641568923 0.5045066234498112 85 71 70
-0.13487367664662997 0.0494028472796127 0.5612105580459725 52 27 23
-0.10493026892017321 0.09093930995866734 0.569819130112909 99 79 88
-0.16548946923074262 0.18061818477753322 0.42829270309965206 51 38 45
-0.12896445542722604 0.14034093403107967 0.4845398053424185 53 33 35
-0.1697026170409957 0.15278111485932322 0.44066971950758527 71 52 48
-0.12954652886330806 0.11515841546908638 0.5045035364158643 174 160 159
-0.1923536006773449 0.22203356209845895 0.38593050450762784 34 18 18
-0.14483996047995917 0.12768984843253314 0.4838503704457418 187 168 164
-0.4128956094822624 0.2797962102250678 0.4206291742051836 149 165 181
-0.17689163468124225 0.1490680095740904 0.435403748079852 151 136 139
-0.07709842323726944 0.11618640108270546 0.5750842565406619 191 181 190
-0.0710403735968162 0.13665790602786004 0.560038326627754 192 182 191
-0.1553140881560649 0.11961872155762482 0.4714238831693049 101 94 101
-0.125529669276314 0.14307674406221174 0.4858624148494421 158 154 153
-0.12289175196689477 0.13919613948920898 0.49196644715346133 160 148 150
-0.13541698922308873 0.1240831930249341 0.49104383478964925 159 139 140
-0.13749807837397254 0.1189173394320906 0.5002023822762736 90 61 53
-0.13599624157573764 0.09385360152750417 0.5140584984132045 29 11 11
-0.12510014980016715 0.12690158170614252 0.49981921822569775 163 144 148
-0.1399172728268794 0.03139220423464318 0.5522238554704239 29 0 0
-0.1353541397468579 0.07927993459172937 0.5272013616249382 139 121 121
-0.16137542724985354 0.05576105802169474 0.4748079216902084 62 56 60
-0.13791726572752583 0.1324091284165676 0.5021179409759673 33 23 24
-0.12949520195760936 0.17031889290657543 0.496400341646527 44 35 36
-0.14409127044453512 0.05638022165381648 0.5323374327337289 53 25 22
3.2914338680985726 -10.554736155359773 6.91649286173962 86 73 64
-0.11874900192950805 0.10853818406094103 0.5303068314598723 176 160 161
-0.10075024853734742 0.15039009448713886 0.5050640241152508 149 133 143
-0.11858150666780319 0.11367576652353305 0.5194072950359827 56 33 39
-0.138743772460094 0.1417544743345339 0.4784582608348161 71 56 61
-0.14141428742893541 0.10973157668036376 0.4944028623864069 33 13 14
-0.1618998258778901 0.1272071284103275 0.46145438960232316 129 104 100
-0.13414118037707823 0.08978070524733514 0.5203707510554267 69 53 54
-0.1297085322689291 0.11906914025339276 0.5010264103182928 83 59 57
-0.10682405240412025 0.15167288215893884 0.5138660262757714 164 153 157
-0.150174340846563 0.13009590945349658 0.47300711798665834 98 84 99
-0.6515188385801054 0.6628017381467068 0.258748536227121 26 18 15
-0.13566489022353256 0.1429368737923953 0.48088827137698636 57 50 57
-0.13666443912703288 0.09002303543026359 0.5162901917486498 159 149 150
-0.056504642140704935 0.13440007340894436 0.5885770542246569 75 63 75
-0.4209233492483177 0.36683030304400915 0.419437422321295 150 143 150
-0.1233330776778323 0.13424234448844846 0.4948202996605775 122 95 102
-0.3517174691799346 0.20544610811997652 0.44953904186895094 109 98 104
-0.13489644691492114 0.1472213614038699 0.48560996761782566 184 171 163
-0.1261300224977453 0.14832647363511406 0.4799095328308593 194 183 187
-0.1423802804130233 0.03680757826064692 0.5316451619966936 169 156 163
-0.13606045387629256 0.09532847463415207 0.5127552450907493 139 125 124
-0.14797265231204165 0.021497590949312462 0.7928527405411435 125 102 88
-0.14573012182652187 0.057236553743695615 0.5184836715992509 201 194 201
-0.5455897211804597 0.9289733046187875 0.22801806691520723 62 37 17
-0.15732559082138062 0.08762579900737981 0.579126911668305 162 149 159
-0.1662087319583218 0.16356037537859996 0.43935356062659375 53 16 23
-0.12062339434677749 0.09004352041457765 0.5412538728051315 81 64 74
-0.6602088527463745 0.9672447502400966 0.0025629710633924773 25 3 0
-0.13769761258687235 0.03542072042589168 0.5879796068597777 182 166 166
-0.13902857825941517 0.03564111681423821 0.5594929959860455 152 135 128
-0.13271021275499695 0.06260228252214411 0.5507443385396859 193 191 194
-0.11971668460584398 0.17395115242686623 0.49770202449421924 169 143 142
-0.06543783458413785 0.11874460253784716 0.59124402274091 184 168 179
-0.3662092244946842 0.2188852809220578 0.3957914817409822 45 35 26
-0.177117306735681 0.15260156673400224 0.4420047753456946 84 68 69
-0.1737760990836836 -0.01755165763289679 0.49384932850312013 90 78 66
-0.12575215771302203 0.1155377222412379 0.5114589771822887 172 161 167
-0.15067364100939717 0.20361805183414466 0.4435671590951137 72 60 64
-3.7862341932979287 8.915203642816198 -3.688090058842608 56 40 27
-0.14376556594998813 0.07161139159889902 0.5166486413667649 41 10 16
-0.13079043352818753 0.07943873082972076 0.5477707201545194 160 148 148
-0.13406755476622687 0.16807864748891332 0.464495503544239 158 136 138
-0.17533740050421223 -0.0532319028560353 0.8045989277292012 163 159 156
-0.27581031831308056 0.15289361259038972 0.5414232887932331 122 112 113
-0.15563793756880143 0.06807290895354022 0.592914780014739 42 28 41
-0.1530697348542678 0.16299775860477184 0.45241336998246184 128 120 118
-0.17387875627668167 0.1297478587367328 0.4495902904021597 44 25 27
-0.16209628713060628 0.04764296452537451 0.5000142605534613 95 77 75
-0.17553841723504704 0.14072236892938084 0.4415569551420179 168 148 159
-0.12278595642475879 0.06590678279898228 0.5744383888848542 166 154 154
-0.15379446149207185 -0.22084014810202887 0.7665429968693752 44 26 24
-0.13303524398326158 0.17691082367441363 0.46047187690753066 61 35 38
-0.12609852196436552 0.13818459698223165 0.48891534088239924 164 155 158
-0.11195072638559399 0.10960364575545115 0.5337680818168251 26 0 0
-0.1327574242382808 -0.06719177507060904 0.5372664051276208 50 25 18
-0.14667232645723308 0.042581505932796956 0.5323647487980672 152 138 138
-0.11451620480066949 0.1386105627099675 0.501531707907229 118 92 101
-0.15739863471418358 0.12019285158053201 0.4743832901146862 56 15 19
-0.13325846533229713 0.11402652845345869 0.5060398619339301 82 58 58
-0.18873991273421395 0.20810260001170183 0.398088313636744 90 75 70
-0.12071765386622103 0.13567377556423987 0.5017462944264406 73 56 62
-0.19361314689993303 0.17254553548157217 0.4272283502717812 97 70 59
-0.1318608392029407 0.10006600438845517 0.5148306096144738 61 45 46
-0.13853493484525908 0.04440692277974178 0.5800341446480578 161 142 146
-0.137518175195292 0.10633918115501746 0.5123396779412687 95 62 55
-0.20319629839532513 -0.22016927819113075 1.0394344593938118 143 139 136
-0.14615969860109915 0.12440164669210135 0.4847216065186459 131 119 121
-0.14254991283611784 0.11115834883576454 0.49337045984085304 41 4 11
-0.13206043793217023 0.12462718527571291 0.4937214501457109 60 41 43
-0.1506045384017223 -0.010641025974681759 0.6095703004119182 152 132 141
-0.15432544046122573 0.10003019816991973 0.4848738342251504 38 12 13
-0.4737334903394006 0.39694512511514535 0.3723195852037822 78 68 76
-0.1529473840710145 0.1562510473006934 0.4544712137034835 104 78 79
-0.1265182488038526 0.17176496277393782 0.4640475601946364 76 59 65
-0.12927154992054632 0.10376479769346525 0.5798333015576153 199 197 208
-0.42076955440618075 0.3078119803924708 0.4273069626565053 72 62 70
-0.07205384238737633 0.05289692471899118 0.7149486488224823 104 101 112
-0.13924252816504873 0.10041218887965701 0.506141736430531 150 139 145
-0.1505004048823744 0.10413717472698322 0.48969093957124843 64 19 26
-0.07981051897063167 -0.11376407254189354 0.5867960401040827 68 44 34
-0.1378111613723361 0.10154196329323038 0.5255367676690685 114 105 108
-0.11924693993230859 0.09785219274059889 0.551226424507114 177 156 161
-0.13785420072647872 0.08592387400301402 0.5185817004551577 54 36 36
-0.1869202674076675 0.20997545849963842 0.40125306295135316 64 56 53
-0.12980506420517915 0.1091344463812536 0.509253507249869 165 145 144
-0.05597879150144908 0.06877358334956085 0.716383849514293 191 193 205
-0.20034866478291496 0.1925372393546326 0.40805792589455386 80 53 42
-0.16500519997072247 0.1318807236155924 0.4694175829294162 127 106 103
-0.1806696794074036 0.21899190982881106 0.39810741010664563 44 26 26
-0.10608289812216563 0.12550628670708136 0.542235416710324 89 69 71
-0.1390543593699527 0.09818407089296619 0.5079357001561172 54 34 36
-0.13719430881946945 0.09987594951920808 0.5222079096131454 46 30 33
-0.1632017258518633 -0.39707215234803955 0.9291488278254119 51 41 39
-0.16450110334910553 0.06477502165057478 0.4826499295323279 61 41 50
-0.14678652430342795 0.0476101209753729 0.5218679204934396 46 26 28
-0.23563734750757 -0.1463657786788862 0.9691342611863263 148 160 160
-0.1632017258518633 -0.39707215234803955 0.9291488278254119 51 41 39
-0.17926811348406244 0.0999868447292372 0.4567212373059511 73 50 58
-0.1603783288577168 0.1613126730012689 0.45294895098255544 137 127 125
-0.1399450183812131 0.11279494999977252 0.5360181930090635 88 85 94
