ply
format ascii 1.0
element vertex 470
property float x
property float y
property float z
property uchar red
property uchar green
property uchar blue
end_header
-1.6803910077271482 1.3269532575658396 3.326886545204284 90 86 77
0.10004446732710348 -0.1750403186066013 -0.5674523516293822 126 112 101
0.9598819906275137 -1.0868919861546518 -2.930889285733718 138 123 102
-0.16823123459637443 -0.049555129143231395 -0.5701447397119325 112 105 97
-0.08919454216461646 -0.19709061035547368 -0.44175045124120405 90 95 88
0.047754083028122916 0.21841042140709935 -0.5564836739761977 209 207 195
-0.15910973017464622 -0.0481209275167726 -0.5835387699492987 115 108 100
0.11181379660323033 -0.06395257991924336 -1.1414720343787859 115 138 156
-3.8788359676046507 6.775882335709535 11.844334700515434 230 235 229
-3.8788359676046507 6.775882335709535 11.844334700515434 230 235 229
-2.0370534340342603 -1.389841647547255 3.8915007425452837 57 58 52
-0.05681721269536539 -0.17452552883626343 -0.5552371145493078 142 150 152
-1.1400016543667526 -0.7365466050941241 1.7726123998924717 35 45 34
-0.8270198244408358 1.145775330298503 1.8196490468477922 177 166 148
0.46469442502351777 0.7585511284115272 -3.272906242638133 133 118 111
-0.08114083470470217 0.04168676768076717 -0.48785028438352235 121 105 90
-0.3868869637107907 0.12237757836239732 1.2773203462211837 63 71 58
0.026935660649404423 0.029530326895799278 -0.6181698346609907 76 45 24
0.09459349810455736 0.8992694025043052 2.293844931429009 149 172 188
1.4970891665100932 1.5488986174697952 5.551015005408282 136 162 179
-0.10626547129820269 0.3076294253865339 1.244308423160584 65 86 81
-0.1193577247241669 -0.4056422570000917 1.997581473364384 165 145 138
-0.11970318438040227 -0.2402159480717492 -0.34859512983572893 64 76 76
0.019461077538266643 0.29167651546780277 0.4876241237637996 67 75 77
0.43300305610884565 0.2534680784225749 -1.76461776834326 88 106 110
0.11728680650581276 -0.022528804486082698 -0.4647320786905623 112 84 60
1.1536941759146566 1.9256254126804389 -9.198598345751545 66 74 76
-1.1638952420705333 0.3073014349615655 3.666111365227236 70 82 70
-0.24183330965477925 0.8392907644273976 1.766675606334078 55 72 79
-0.031158399677990965 -0.154321308952026 -0.31064309457280237 21 27 23
-0.07474477617965868 -0.3210044875971735 -4.363733950448472 99 86 67
0.05916101275362445 -0.09237324199161992 -1.2867231408233857 180 172 149
-0.0019858947741049587 0.08377470926740797 -0.44555192224002405 52 27 7
-0.03412302867148172 0.5502654959990299 0.9143160100790139 20 45 41
-0.009455166561798041 0.05680237398811164 0.14571839554806185 65 90 87
-0.057357241086389364 0.44726504390757643 0.87323616399523 39 49 41
-0.02558101696861999 0.5736252618814421 0.9825630828746454 29 49 47
0.5215903906345256 0.800523620415556 -3.726898497908041 76 100 100
-0.0939043598367141 -0.048049453732385436 0.516838205791802 78 92 92
0.1910054561711391 -0.5318193151889029 -3.033512321098562 49 58 53
0.03435267372243286 -0.14863151428102941 -0.33980286516853353 14 24 34
0.006210641650045798 0.29259817910594693 0.47246537986328674 102 113 115
0.1375502830868987 0.09372353857360345 -0.6181942294595336 61 66 72
0.06036039338908362 -0.10738860970282764 -1.3909187886349523 101 124 138
-0.12269235304850047 0.9595307983481058 2.165127286305511 37 57 56
-0.029524734129711905 -0.12742525542451805 -1.3975656573255792 172 163 146
-0.034946611985611484 0.2375165767062723 0.45075406247725636 65 73 75
0.06725949929099928 -0.13485307101802252 -0.6325861982869689 39 48 47
-0.12166065478217673 -0.098977766830062 -0.4298221077928988 56 67 61
0.006237040542822497 0.7987008765678836 1.7846014022280448 137 156 170
0.027280171584496776 -0.23809412637794417 -0.3947970748632758 99 110 112
-0.9128829658760419 0.23010910703544998 1.4021170885762873 138 121 103
0.00048213086176870066 0.3125783555094628 0.7020308154917039 50 58 61
0.05255104832349117 0.15983283456474365 0.25245350221386065 56 51 47
-0.07873177575780081 -0.10639087978040396 -0.7755983112531678 123 113 101
0.27486091730763085 -0.31389793536898797 -0.856099129657943 135 123 111
0.2019618790057121 0.05273026069517631 -0.7325791188675883 125 137 137
0.15471852455362234 -0.07814460869212699 -0.3980480053297407 13 26 34
-0.06935658868986097 0.06507741970491905 -0.8021894952768411 81 86 89
0.143507049827288 -0.22671501579290992 -0.6025246490821061 48 31 21
0.3008286718287214 0.04785399327702449 -0.7169397977998639 211 162 130
0.08799538428663387 4.392544284440377 7.32806855799988 140 154 163
-0.15101971769479272 1.1226858438079874 1.4812858934892084 51 46 42
0.33226016917583573 -1.08610142994872 -1.8235592914941474 126 130 131
0.046047002145646804 -0.09340284039932648 -1.0294094743986366 86 100 100
0.0895726414935205 -0.3329570378583956 -1.5041301106056513 94 97 104
-0.0168630853285315 0.14757101739720863 -0.7027539983195069 124 143 139
-0.004921774829491058 0.10982116104558737 -0.5560363858572721 122 141 139
0.20696124949256242 -0.5718623978183404 -1.5987884381825817 48 52 55
0.20102032574344986 0.17082670294105268 -0.4091022740718348 90 99 98
-0.6734068207587516 5.367631316372447 7.270823539658785 110 75 56
0.08284903621789715 0.1277576940557294 -0.9048255510214367 197 182 161
0.3360989622141986 -2.4104165825824935 -4.619375776353058 52 57 50
0.3415794980412038 -3.228070717486427 -6.111265825164063 62 65 56
0.0783379815238883 -0.21513139069793863 -1.2412790852604187 50 65 60
0.0028690256743524284 0.037391288125377536 -0.7391994834839009 21 33 31
-0.00801175127287191 0.05473416748351166 -0.7209097025895524 29 45 44
0.05921833398657857 0.0038465726484703234 -0.8546940308321985 96 120 130
0.22455440629114834 -0.6550994971891066 -1.4988564539695222 194 181 162
-0.07827871356752135 0.022715550490834274 -0.8343991087948271 142 125 107
0.02347513239294156 0.11544243281695567 -0.59945819642071 56 57 59
7.954661049153516 -121.67623173258335 -255.4978233373832 43 32 28
0.25215301731616707 -1.1925636302351643 -2.0448251188191975 91 91 91
0.45990161973023574 -1.6450054722102516 -3.379405073783226 133 145 145
1.0079656002402615 -4.8724309510495765 -10.54944959173443 79 80 74
0.1429484693744706 -0.34367124223001466 -1.3826202526634808 81 79 66
0.06189356247586244 -0.06603979955178241 -1.01235588803103 40 51 43
0.13627454936455916 -0.06278743037451649 -1.0332605441766776 209 193 170
0.03663557047768613 0.003531024698924116 -0.8908164017180522 66 73 66
0.10009483774682357 -0.2194804844180346 -0.755319214486106 118 129 133
0.19819475623577737 -1.0198953893012777 -2.476593570183102 60 71 63
0.02652961713177682 0.013723823912404877 -0.8558032749097266 9 12 1
0.21053350808534557 -0.5840257052481782 -1.4779273225214142 104 95 80
0.051619268168160655 0.030524860523746082 -0.8639444112011984 78 90 80
0.04062551842110687 0.13407705314543075 -0.5703278327024812 59 66 58
-1.2688649347275793 5.235433563958536 8.722447059830383 119 128 125
-0.029005241438221127 0.07381716761883272 -0.5619802458877464 103 118 113
0.2218698548493221 -0.6370776524928436 -1.5837740619125802 111 123 137
0.17164332860615142 -0.10915922914601514 -1.0353508379411165 112 78 53
0.22540709322563693 -1.4649863045112184 -2.7176056269857405 70 23 7
0.20851960662501803 -1.1036743182385116 -1.9972797913366314 116 85 57
0.3427377931518927 -2.8148013716479148 -6.18664474471977 46 61 58
-0.015147515097202252 -0.6628024415049129 -1.6727646911738507 23 29 27
-0.08550613611259965 0.8455826260548459 1.3516712611809527 134 145 149
0.2204132141339746 -0.5445509149579373 -1.370880020114343 173 110 66
-0.013809828154584062 0.15929161946678133 -0.7263791361199619 119 124 128
-0.05882721614300681 -0.9961121046813104 -3.5690861554813074 52 66 66
0.11283243855831174 -0.0576433109446388 -1.0973459663957448 168 167 163
0.09541106762250394 -0.06213825608994846 -0.8664449107925362 25 34 39
0.09677562999480785 -0.013289631085305816 -0.9770523968562131 123 102 83
0.10912303438162793 -0.10922207827700478 -1.1305704111231354 86 73 67
0.09924361026230044 -0.06031742548803696 -0.8924291447927569 98 115 125
0.12222719815095237 0.032941077053604356 -0.753567847601574 55 60 63
0.11578004184133701 -0.00939716788189328 -0.9362731573162991 53 44 37
0.11472807902607816 -0.010919300595228694 -0.9382765930343215 14 4 0
0.12222719815095237 0.032941077053604356 -0.753567847601574 36 40 41
0.11566904019141766 -0.008725806793055258 -0.9377727693704563 50 40 30
0.11412311699216508 -0.009598638656197356 -0.933742521756748 47 40 30
0.10368313170894317 -0.07678963681792933 -1.1104897513843208 91 96 92
0.0961742783270049 -0.05678386461765017 -1.027921765998509 196 201 197
0.13121823255212267 -0.023961051502350502 -0.9554940126326209 128 109 95
0.0960346518134436 -0.062144593600634866 -0.8684993646944834 99 118 125
0.1203784579957178 -0.09919631394133487 -1.1095028793858477 123 124 126
0.0882253682438726 -0.036447829453338895 -0.9839150226221832 124 133 130
0.10173455771909967 -0.10794354278418992 -1.1380526412886394 90 104 115
0.12410900820077214 0.029636174207529363 -0.9004162602125989 142 113 97
0.1080627553678991 -0.010140671768653792 -0.843774062847136 57 57 59
0.11226033026301618 -0.0889405401701316 -1.1287808326474653 87 104 98
0.10744178897605942 -0.00791582403047327 -0.8300944757251717 37 43 43
0.09249132806954569 -0.036203233170995226 -0.969928805595026 75 85 84
0.08994613458669613 -0.056726383123267915 -0.8412369649964595 63 60 51
0.13464480471366644 0.002252599171246237 -0.7932521477000929 89 103 112
0.13399240708799737 0.03827999788488994 -0.7447326717107439 59 61 60
0.11324956342446993 -0.07366473138032324 -1.0814990136392295 82 91 100
0.04722795671431395 -0.1923988830100879 -1.3435729673531531 129 150 167
0.07702877178621251 -0.009495251330976413 -0.9211394592868802 81 59 38
0.12365228845273366 -0.07202444092235222 -1.1043486397626245 62 53 46
0.1320456082865636 -0.029334639231124116 -0.9576756354570436 107 90 74
0.07836426259221724 -0.01914653223138149 -0.863761482172555 54 72 82
0.08317148789613847 -0.00849518722582595 -0.8532636355862946 11 5 9
0.10185984687662761 -0.04974934806859304 -1.014614445434889 109 129 127
0.1102458945435089 -0.07176880613458843 -1.0692585516479922 133 145 157
0.10127625078100387 -0.10795990892552242 -1.1356382565378986 52 65 73
0.09555058354033244 -0.04514127052959634 -1.0019716057084807 57 72 69
0.09082910866431582 -0.03888854057573832 -0.976462860012323 110 119 116
0.0698086185493979 -0.11116712261837425 -1.1816185553079022 102 122 121
0.08059404735638787 -0.021718493544973544 -0.9384824448632102 57 68 62
0.08811963787385 -0.005327159279782241 -0.937588020862178 90 64 49
0.08434336169168326 -0.03149158811757137 -0.9709666977737765 26 36 28
0.09609296422024555 0.005281348611285982 -0.8793405369932566 71 78 71
0.08499005772438795 -0.0045816222700403395 -0.9216838185290117 39 11 0
0.10177614050624607 -0.05263874455289061 -1.0288205408253788 103 119 119
0.09049446655243219 -0.11238357696059353 -1.1660772030992763 7 10 3
0.10188895204795607 -0.0757629997578401 -1.0999699472629054 67 55 43
0.09473370468712541 -0.007699922745399921 -0.9423996899248682 172 122 87
0.14082669353060168 0.027874718432118705 -0.7532132896037673 64 64 64
0.09380860679483262 -0.0002964368873007571 -0.9191390925857279 37 4 0
0.09876419260214904 -0.07403030866241331 -1.1137403906341476 186 178 165
0.08872212161200403 -0.03164182837905291 -0.9736008974866499 19 25 11
0.07363127917956769 -0.022612955194447303 -0.889875638060844 25 41 41
0.0988637516458047 -0.0060572934020102775 -0.9402098769692468 54 20 0
0.0892923495003566 -0.03778253512667915 -0.9893562437105393 88 93 96
0.10443596008122348 -0.0572444905098987 -1.0461339215671286 80 90 92
0.11474359150908853 -0.08257010734999175 -1.097665485073791 23 35 35
0.11698478262770194 -0.0822087939087286 -1.1225479979858841 135 149 160
0.13087675640644478 0.0004955882325617622 -0.884326665221306 171 154 144
0.16127295559798874 0.06984843617371224 -0.5688437569660584 79 84 78
0.11414183550075442 -0.08808643165144768 -1.1067151788756697 19 25 25
0.10742033578648202 -0.08017573478565 -1.1066072580610757 63 70 63
0.1106070326470515 -0.0716791512231931 -1.0737737323560452 25 38 29
0.10926761249248504 -0.07842577163766318 -1.126411923289831 62 74 72
0.09486781410480569 -0.025889490803043706 -0.926148897441363 95 110 105
0.14337488615868763 0.019813861877705174 -0.7322061471224192 21 27 27
0.11213802983806093 -0.0630696358748809 -1.0714251877773167 173 189 202
0.10584911790176699 -0.06063665015359063 -1.04933981332799 19 0 0
0.11171677376118602 -0.020585230443537893 -0.8722255278707267 105 109 108
0.11112899725399639 0.02453421986442647 -0.806316012558712 113 109 106
0.08754556433904069 -0.02910795470318653 -0.9717811775891194 97 100 93
0.0718372497959875 -0.022374589709288226 -0.8805751242298641 20 39 35
0.09049964294314318 -0.0019896824377624925 -0.9109411788433103 156 107 74
0.08016837916417714 -0.033538714890990834 -0.863169181029553 42 63 56
0.0866539524881125 -0.04578151072991656 -0.9886233505452062 72 90 100
0.11233263609066015 -0.0887948079147512 -1.1148802948126464 129 134 130
0.0968315101810433 -0.007383758263110404 -0.9163036407573634 36 52 51
0.09757495622086158 -0.01672326156613013 -0.9458453249969307 109 76 57
0.09736319996800225 -0.004797301582479082 -0.9392849684854179 125 83 59
0.08080750697703841 -0.020760764791286135 -0.9346480028414021 26 39 32
0.11145873645657747 -0.0751326852976144 -1.0838608069988453 75 83 72
0.09561312923260779 -0.10268984355572044 -1.1614305291039888 43 57 58
0.09811665396191153 -0.07305622962002302 -0.7905200382682548 11 15 14
0.07205836583998756 -0.019224304916513994 -0.8772284773601531 5 19 22
0.10495517625299744 -0.06415479416726913 -1.0706708495511426 131 143 143
0.11495942844265969 -0.08528531111662876 -1.1031355344869425 78 87 86
0.08310985504554831 -0.0176872359595346 -0.8954673000183909 52 57 53
0.009874029425460808 0.09114880051843886 0.24960165137448037 120 113 103
-0.10290129122467018 -0.20019575170516596 -0.4507243059548901 152 148 136
-0.10290129122467018 -0.20019575170516596 -0.4507243059548901 152 148 136
-0.10225887684466922 -0.19744846918615874 -0.44711120341221494 163 177 180
-0.10179884492645988 -0.1884848174497873 -0.4371614216454213 182 175 159
-0.10304094682096814 -0.1939142753765317 -0.4442774147953987 53 64 68
-0.11832871291172194 -0.2046768904458243 -0.4678036020388322 54 73 79
0.03783898622756642 0.0970622556916329 0.06819334199296574 110 93 85
-0.05959777239454604 -0.062254396197751645 0.6067750704902968 151 139 123
-0.03939188370729999 0.036277548071739295 -0.05629499472445377 48 45 40
-0.07440095704273768 -0.039211506226753 0.5819684548237604 72 56 41
-0.10759668291177318 0.35201356767688446 1.0570105036659097 58 53 49
-0.04229855069437447 0.044195132620525 0.06489888564451768 62 65 56
-0.46551507339747333 0.24638336475082714 0.8730875694525375 77 94 110
0.04819351371458269 0.15988609324918762 0.14048848046233367 143 130 121
-0.04391520722745283 0.03214614963327708 -0.15214187154800127 38 40 37
-0.07857649450882494 0.029723480372159196 0.19830275802600278 159 151 140
-0.2414609420607041 0.00604351743007909 0.40440695006834204 86 100 113
-0.026898621913364732 0.1627694991513808 0.4198252216536524 22 29 21
-0.032929058009829676 0.03263739118819781 -0.11768524364180247 4 16 14
-0.05751473845600706 0.036936476105986604 0.06170719466425237 75 84 79
-0.04250978234308072 0.038990314804570464 -0.1405455009032259 8 13 7
-0.04063004574774424 0.03602865383087867 -0.05495224453197688 116 128 128
-0.07353723255836395 0.017156948186886577 -0.010806227633816095 99 100 94
-0.058452409389028556 0.025383640045194063 0.017092651426073923 57 75 89
-0.13271805925797772 0.17484254763695523 0.3391291702287095 26 36 35
-0.07907801785693298 0.014485464180328948 0.06414000465891714 114 125 121
-0.09115219830476065 0.2821739131014968 0.5360961841017051 100 112 108
-0.12107011599364442 0.23093041379552548 0.7328476295939289 105 108 97
-0.11702025199727108 -0.4009942747568918 -0.7156349949313635 38 49 51
-0.061704926702926294 0.0066466832044798346 -0.004202449830661622 155 142 125
-0.08491505267960439 0.087217426654089 0.17469225632393573 134 138 124
-0.08442731869609928 0.04925520970305664 0.05852804758419869 98 107 104
-0.03991089291612197 0.02621669065408553 -0.08789772504983788 70 69 64
-0.04566741956665628 0.042763360088905314 -0.02088333215940828 99 99 91
-0.035145140962897455 0.03989776973263019 -0.11162872262755948 118 132 143
-0.0646551035899224 0.3534261882050811 0.611325408611537 111 136 132
-0.11441957163667994 -0.0001729518319860068 0.17532258510946816 67 86 103
-0.1255759286939107 0.82673655494942 1.637976018174287 135 128 120
-0.03708796527100568 0.03729462295200616 -0.07720584875525692 81 79 80
-0.041214786254678906 -0.023304352535189195 -0.1094578098254485 140 131 114
-0.09742907569111176 0.17889628022461462 0.5884897777031491 22 29 21
-0.10298362370990824 0.11558435286110309 0.2672821089814314 118 130 120
-0.03156868538024044 -0.021050154657007165 -0.22089957969957538 82 98 87
-0.07152913444101447 0.057544936134253155 0.08775393591047312 104 104 94
-0.10541570602084699 0.040283177699193026 0.12424982605241325 117 129 125
-0.26402103792342874 0.8499225001153322 1.9158223321272188 45 59 60
-0.037806580058478846 0.004312245654734204 -0.18664495412342927 118 123 119
-0.12001422565930116 -0.05280300443011761 0.4903506921715355 197 185 169
-0.04733941569833682 -0.015508517695295484 -0.22507962235100096 33 28 22
-0.08800079859118336 0.2724290467927984 0.5688718365146671 56 53 44
-0.10553308449403088 0.10640780566553268 0.21609410998322418 53 68 63
-0.05281185404285444 0.04477119806737129 -0.006161086289101976 107 118 114
-0.0412401519270775 0.08381580366082715 0.2934244163687391 42 52 44
-0.09799707973537111 0.07063262070506696 0.15076423517332482 78 78 68
-0.12394687695920505 0.2971854478180922 0.5157731881842552 97 109 105
-0.0010712437670445103 -0.21718261717629886 -0.7064591992152891 94 108 95
-0.0712056709809919 0.046697982170001595 0.051888674846476746 44 44 34
-0.13643307623032505 0.9727941148961422 1.9999963472466287 99 109 100
-0.12821619321410846 -0.15054385954965152 -0.4289506731494414 34 40 36
-0.149303163281667 0.003369839863968335 -0.27582146411107245 20 30 31
-0.16804190556555107 -0.009251125988099318 -0.3017225217353137 78 92 95
-0.16832580432144637 -0.011467901520846025 -0.304891456983191 70 83 91
0.1320346318287806 -0.06306053991440203 -1.2222276106469536 117 116 111
0.14106173338624653 -0.056106342199247 -1.1382657858067806 122 123 115
-0.1609880807803664 -0.013665544965600185 -0.30474583569834035 156 174 184
-0.14702722204416432 0.01292322334316126 -0.26128124720545504 33 44 48
-0.16832580432144637 -0.011467901520846025 -0.304891456983191 70 83 91
-0.1609880807803664 -0.013665544965600185 -0.30474583569834035 156 174 184
0.11425149443352076 -0.035661595554619584 -1.14918159387764 75 86 78
0.17680030838683575 -0.3114560646376213 -3.305989755701043 85 88 77
0.18353817855749086 -0.328351228477405 -3.441756394537523 33 35 24
-0.1286484446919295 -0.13718285282977297 -0.41319128573049496 88 93 87
0.18595454807743017 -0.0012741479881934296 -0.8955997983249934 149 151 150
-0.14728916299168338 0.012281963442412641 -0.2687576735744224 136 146 147
0.11202524905668367 0.0010145105633995299 -0.9896753849939102 65 71 71
0.11202524905668367 0.0010145105633995299 -0.9896753849939102 65 71 71
-0.14650371685210276 -0.02077662585523906 -0.28790460909306115 37 48 44
0.1470572183557624 -0.039970231380596695 -1.0406394666071208 131 137 137
0.1131950459841557 -0.006945588350607233 -1.0160561149661596 33 33 31
-0.08005725751176188 -0.03851819229668788 -0.32264050379061954 122 132 124
0.11492495238393759 0.004953628034057934 -0.9659970311983332 100 111 115
0.11331674589669827 0.0020132491282714546 -0.9816645648409298 35 44 43
0.1470572183557624 -0.039970231380596695 -1.0406394666071208 131 137 137
0.13035661984022354 -4.0318759637118544e-05 -0.9475492638522413 144 161 177
0.11242015693796856 -0.00041504746108730607 -0.9939022070814078 123 133 142
0.11397246283655507 -0.00737968157502854 -1.0148124638661917 101 101 99
0.12328120091528794 -0.016903028272972003 -1.0188944545452558 51 57 55
0.13146941633025722 -0.06510199957078171 -1.2387162414348722 117 119 108
-0.0763067917868754 0.06107059807413852 -0.07911941945579422 95 99 102
0.13125713249879692 -0.06140141948202652 -1.2155469695443983 26 25 20
0.11412786834703359 0.007042726265936818 -0.9616244972247435 99 110 114
0.12133584568296077 -0.00917636148953284 -0.9949135140086015 134 138 139
0.14557376662547772 -0.03549540285610825 -1.026561766297713 4 10 8
0.10523871178477884 -0.022134188535896646 -1.150306305899508 8 13 7
-0.1515913268873195 0.06379509476271657 -0.21736213218342215 102 112 111
-0.1556268693416874 -0.014124759346844235 -0.28784048953985397 108 99 90
-0.1551928133530259 0.0629215039521773 -0.24947292018343759 26 36 38
0.11870126409455642 -0.0071268246322284306 -0.9961741098856153 148 152 151
-0.15767309559607848 -0.011690154908718758 -0.2921306604576593 9 26 34
0.11262671223405729 -0.028007169607947285 -1.1164775338171862 159 164 160
-0.15561670011117906 -0.014100593114182818 -0.28779820726955496 103 117 120
0.12237336276685973 -0.05873044916690137 -1.2472511774123234 105 113 100
-0.14654176965699128 0.05637260557736609 -0.2464620711195461 21 16 10
-0.16642285426635042 -0.01586896906104366 -0.3096713115479764 147 162 169
0.11406217677353846 -0.009239141579355313 -1.0219945102419667 29 31 28
-0.05127739230573092 -0.08226036661985446 -0.3932081192253637 116 133 151
0.11884148502187385 0.0019052004545198147 -0.9634694063204581 70 80 81
0.1428726162006404 -0.05894172195041275 -1.1460778482363692 93 98 91
0.12325328003204364 -0.01762877970574397 -1.0220814491226005 153 159 155
-0.19385133997711643 0.053277658465231775 -0.4762108316507222 191 133 87
-0.18183448605666666 -0.24779402156066382 -1.8442751954635668 39 32 16
0.11383380807880471 -0.028901079516245952 -1.1151396000272844 36 41 35
0.11237739579021909 -0.013745997329255398 -1.0481353993163811 115 120 116
-0.15689439284723827 0.06844472251958345 -0.2242552861165219 104 122 126
0.11620758417115891 -0.01740805771025743 -1.0481948152959015 97 104 97
0.11177919440007208 -0.011304265718582686 -1.039820601283284 115 120 116
0.12396480849073588 -0.06370667169326255 -1.2724485840486046 45 49 35
0.11726768797714007 0.006807516598495601 -0.9522036446358882 138 151 159
0.1118215563252377 -0.018379127906153658 -1.0721455417971462 86 91 87
-0.14938313987029594 0.03198180173691508 -0.23953340590256864 31 38 31
0.1132705880522772 0.001306499738213705 -0.9844029560174624 99 109 118
0.14428710756615967 -0.0814143288281164 -1.279408032861856 65 68 57
-0.19385133997711643 0.053277658465231775 -0.4762108316507222 191 133 87
0.13646520207976753 0.058471131227924196 -0.7104725256384288 133 137 138
0.12267051196878712 -0.015400876121741066 -1.0147479969064592 85 89 88
0.15797378779138277 0.04401904315101216 -1.0169067186296035 119 123 126
0.04493882986382478 -0.07558282470556484 -0.8453893652690485 81 92 78
0.11790953557510228 -0.0006741214027911302 -0.9752748070579146 53 62 59
-0.14883739360639534 0.07254082905816132 -0.20882065925476884 82 94 94
0.10954044328276412 -0.004102397315205809 -1.1586054251474813 93 99 99
0.13035830238447144 -0.05503253299292942 -1.1805259328274733 88 89 84
0.12691315731880218 -0.06204236481559428 -1.2449276156285405 121 123 109
0.10779214328749008 -0.045935601613930184 -1.224111076195011 95 101 91
0.1181606754123626 -0.0003175401906667474 -1.1748171954916116 81 91 93
-0.1641765491195783 -0.013494203106946687 -0.32898860743359537 77 81 82
0.11773377261566775 -0.04062673903942024 -1.160728095779825 103 110 102
0.12642524031028113 -0.06365860577805084 -1.2574897637883733 39 43 29
-0.09469989538748971 0.014648449968720202 -0.22370985950299513 109 140 135
-0.019605413744947314 -0.030382410454875768 -0.4060428432094302 66 81 76
0.2914682436866843 -0.18863343846279573 -2.270337424699559 54 62 49
0.11128486547303594 -0.0022590623626370806 -1.0046971329947438 35 39 40
-0.15232620572310157 0.07719336133084893 -0.20486002115053528 35 46 42
0.13701083243842316 -0.18828122303976463 -1.3711578490290708 109 115 105
0.1332589604414032 -0.05423359990518791 -1.1617715111380191 108 113 106
0.11401000101830965 -0.003137132688247942 -0.9982377015831448 56 62 62
-0.10632717966792893 0.15863319127043815 0.042782762627640296 108 116 103
0.11856340700693462 -0.0019343007504969924 -0.9776052706993307 100 106 104
0.4628192431477333 -0.48979744506602957 -5.3820508162351866 125 129 114
0.09190619294786523 -0.04434125819538902 -0.9041647571905573 28 37 34
0.24907862809544823 -0.5027772170489361 -2.805815449258402 24 22 10
0.2834536008127427 -0.3157246912291578 -2.6856863053721205 101 107 95
0.10379635303567997 0.0064673550263463905 -0.9979537937224394 118 127 132
0.2438361968047342 -0.4692305790134348 -4.5494766345363 36 42 38
0.19333794291654793 -0.07525903717824627 -1.52364686214162 143 149 135
0.012300782775266353 -0.554747612163248 -3.3470066250559367 34 31 22
0.12424264074831629 -0.030497759646689094 -0.9818365895068295 17 22 15
-0.07944421827804117 -0.03786183749266084 -0.3234033874958655 112 113 107
0.13814714553619933 -0.10248636920535607 -1.3989420588513084 32 36 22
0.12073161874228258 0.06462955344690732 -0.7175635691717739 66 68 67
0.14344124192879432 -0.08610588453544596 -1.317588790697528 132 139 132
0.11440122334849606 0.004707187835447074 -0.9686804932676241 35 44 49
0.11167215811942495 -0.017913053368023305 -1.1279203571641991 32 38 34
0.10518850368925199 -0.03696028714094703 -0.9703258431225615 91 97 83
-0.05614555851689089 -0.1041841523219967 -0.4913336395202245 64 66 65
-0.04955231462460383 0.021645648772520253 -0.09209276573449064 114 116 113
0.1202286035173725 -0.003978289607951897 -0.9811639054331702 57 61 60
0.11737524767122712 -0.04292686343569587 -1.477302891318099 76 81 75
0.08623951656102387 -0.04047789198854317 -0.9638644647885869 76 77 61
0.1279067803377954 -0.08088880478447137 -1.3133970361178853 131 135 121
0.12888651976142307 -0.015282431835068113 -1.0829226645680645 94 100 100
0.07500662453217743 -0.05256994703949126 -0.8884708630277243 86 91 84
4.34348083824703 3.115580881223591 7.032879308115768 157 145 133
0.03649048534229771 -0.0799574373763456 -0.3935274733137551 152 166 175
0.03514720404908898 -0.07882982363957979 -0.4016862607945395 132 147 152
0.0364767776019091 -0.08000324133577164 -0.3935687296510066 94 109 112
0.025042716951882968 -0.02018823969466083 -0.2895559841929556 98 103 97
0.026416282988219648 -0.019297080394629622 -0.28998488910885395 90 95 91
2.6502060158502383 2.9380456346349964 4.01508274217141 102 84 74
0.03466088347787998 -0.08200601049063473 -0.3974141179261579 105 122 132
0.026416282988219648 -0.019297080394629622 -0.28998488910885395 90 95 91
0.03462716399190292 -0.07014464624510086 -0.39644843842273897 45 63 73
0.031831879099164816 -0.07066938619572213 -0.3911473235537382 130 145 150
4.336373248274536 3.1136262338926337 7.035597563915167 94 82 70
0.26616127740306933 -0.38771825429329826 -1.6770585967392433 129 139 138
0.03242017031847184 0.01271540120085662 -0.909427886591483 5 12 5
0.027431447234950907 -0.000991089450608442 -0.26439994792326327 16 16 8
0.026288662762275306 -0.008103219167414327 -0.2739291579762959 132 137 133
0.029684755058866925 -0.05833230307330254 -0.35996360886860457 132 150 154
-0.441438156479952 4.2788728698049265 10.593319685127346 108 131 125
0.2712891268304515 -0.4286402226007601 -1.7711098481364789 133 145 143
0.5131295512589007 -1.3759535959593014 -4.161930276685494 112 124 120
0.02677340978226359 -0.007883058313150003 -0.27410283772057276 19 24 18
0.8768781383888833 -0.5465977018659494 -2.1017823813093686 182 178 167
0.02760878758052067 -0.069940908889987 -0.40384720528770296 114 127 133
0.030365738060261844 -0.004274382069135945 -0.9243559589399722 34 42 31
0.03162355743495882 0.014283522922658986 -0.9076335155916826 129 134 128
0.03754508244414777 0.01919004469535925 -0.9076370450832025 39 44 40
-7.846003713091071 28.336693193340544 72.78382980179404 45 57 55
0.024431145187214107 -0.027559942205433688 -0.29833643559824635 17 26 21
0.026949091215341104 -0.0014600462244724558 -0.26444477269340616 142 143 138
0.043801623624837846 -0.07053390504211232 -0.39355317040404686 40 50 49
0.03326951955702767 -0.028835634504663404 -0.3206143589324898 42 46 45
0.2793798803630598 -0.44197164509774994 -1.804149094587584 40 52 50
0.04298297359516682 -0.07507584645983895 -0.39793449140439124 46 57 59
0.29227070916806575 -0.5366395100792459 -2.031968231419209 17 29 27
0.03795263216572911 0.019740559132896275 -0.9073640126624121 103 108 104
0.02443507767209286 -0.02337758582722249 -0.29232833001565983 79 85 83
-5.0205257810470325 -3.5456903994221673 -9.364009326058575 114 100 89
0.03496386281991803 0.017061858541194366 -0.90750504427656 86 91 87
0.02506015349695071 -0.02343067494532383 -0.2940286597168467 103 105 100
0.27742389128179695 -0.49113542429889717 -1.9196663463852235 63 78 75
0.2728702026059434 -0.48072500455029765 -1.8940843845917104 123 139 136
0.039293836969605374 0.021004786008470135 -0.9073598749614257 119 121 118
6.7701190919501295 -23.857472420827186 -62.30058869973872 115 127 125
0.03955868489189074 0.023159745125494575 -0.9059021385832128 95 97 96
0.015713957174963482 -0.05845813645702565 -0.34350379086997446 88 88 86
0.03784893300410216 0.02130931135920274 -0.9061250711013756 112 114 113
0.04008599350947718 -0.16377255593457352 -1.1956780828627198 84 87 76
0.03948676960276581 0.024996549244851198 -0.904478325768975 16 20 21
-0.8869143131837852 3.6966450476041803 9.007186902480957 127 141 141
-8.77475765097439 -14.181709523239423 -36.25655262916791 28 38 40
0.06479514412124578 0.027226723957137565 -0.8977392467432229 66 76 78
0.02302601503188003 -0.01052942219922779 -0.9272343648984595 127 137 147
0.10170454369230617 -0.06771140114386572 -0.9861619841082114 144 149 152
0.28475067975767 -0.5457404006953221 -2.0528076757584777 36 51 48
0.17250172096797747 -0.2931360491771342 -1.4538220735379621 93 105 101
0.041294865879613826 0.024692959585569343 -0.9060794346925383 117 123 123
0.11749375650096201 -0.008258813573507684 -0.8759006895223205 85 99 108
0.21303014328556147 -0.8993517862155758 -2.96590926310079 25 42 32
-0.48100030764179724 -1.29150917360252 -3.1426345912252387 6 3 0
0.17893852379969852 -0.2811158740870733 -1.4312334611327864 19 30 24
0.024358085448690604 -0.06960119905263108 -0.3567556718896824 146 156 157
0.023294766800812584 -0.01540953567020342 -0.9327825317816875 34 43 38
-0.09405137157261603 0.1310998570213715 -0.7621227331296822 42 10 0
0.03583971817715945 -0.014320947702481768 -0.3035492346782568 40 49 44
0.8600799737291484 3.5035235632613 7.946492764369909 92 91 86
0.030398999306288577 -0.01030381829963387 -0.9304816145403028 116 124 113
0.02503542073562971 -0.018665901517949234 -0.2875830859397924 105 110 106
0.1579574310422013 -0.28361756396362164 -1.4306480187504274 20 32 30
0.06077023027455387 -0.0450418828240072 -0.9858218764598958 36 42 32
1.0495851939343297 -0.6421097734505036 -2.361577075864009 137 130 112
-0.0016052567254052261 0.00669685872936624 -0.8989323340727823 26 39 32
0.006355180145167811 -0.06840403345436297 -0.9589276406184754 134 141 133
0.038660291317610194 0.019018792809691296 -0.908504224707913 58 63 59
0.026934316594542373 -0.0061344270256846805 -0.27221666629390856 23 24 18
0.17250172096797747 -0.2931360491771342 -1.4538220735379621 93 105 101
0.07651392630336057 -0.05839631439747022 -1.001894862314238 73 85 75
0.02228483186959423 -0.032342581564214296 -0.9509883816637279 53 64 60
-0.08874891083199622 0.12073379540772947 -0.7707076445112548 125 77 57
0.03995555611930373 -0.16493459127086751 -1.1978162790947398 33 36 25
0.32119336835105966 -0.2580940008615663 -1.4189713056769695 141 150 157
0.04188365877635183 -0.06495362655015995 -1.0095618132293454 83 94 86
0.07796353372486536 0.002183030024480415 -0.9009970237019286 117 118 112
0.03911093610613431 0.022722875973297293 -0.9059634888515252 84 86 85
0.3252681482296643 -1.2284203551734039 -3.7858618555233687 52 63 59
-0.017202735836493684 0.01172368632419602 -0.8841174043248121 99 101 88
0.536747251728832 -2.4949778105487375 -6.887433248996044 122 133 129
0.15501633774202353 -0.3156476456994153 -1.502840060494203 19 34 31
0.7998362242780768 0.8529860726379037 2.3043072488239833 146 172 185
0.030016760432759765 -0.07281081968515078 -0.4137470976934645 126 137 143
0.03589598494184011 0.20661958191085272 -0.719785984794756 184 173 155
0.047311590545202536 -0.28745849103974885 -1.4335599869700058 55 54 49
4.235143924978777 6.494364850162546 15.648448344312994 96 103 96
0.06458586947153513 -0.02066148756793072 -0.9650334059561978 74 77 70
1.4928234760118113 -0.8938958175079248 -2.988549109798712 173 159 133
0.060345575629917644 0.061544761140244666 -0.5424086934088588 189 178 160
0.4380462134824649 0.6632574002902153 1.4724210614172977 142 164 177
-1.45600174414261 -1.6666247600516533 -2.8953259744746314 127 113 100
-0.11259641378159821 0.08857477471982218 -0.7293823660435006 90 53 35
-0.040215814621095476 -0.07379626116886578 -0.8914964023288782 41 49 51
-0.11391085370395099 -0.02818557019395708 -0.8038160344142277 69 76 68
0.004320803332090593 0.019719490215222603 -0.8931354337221137 115 120 114
0.0621203709117786 -0.047653513707391716 -0.9849321289260925 129 134 127
0.03396654397189031 0.04175184523464454 -0.8712840934927211 81 90 95
-0.025939583243310183 0.019905171553111393 -0.8981773519032232 28 26 11
