ply
format ascii 1.0
element vertex 53
property float x
property float y
property float z
property uchar red
property uchar green
property uchar blue
end_header
-1.6803910077271482 1.3269532575658396 3.326886545204284 90 86 77
0.10004446732710348 -0.1750403186066013 -0.5674523516293822 126 112 101
0.9598819906275137 -1.0868919861546518 -2.930889285733718 138 123 102
-0.16823123459637443 -0.049555129143231395 -0.5701447397119325 112 105 97
-0.08919454216461646 -0.19709061035547368 -0.44175045124120405 90 95 88
0.047754083028122916 0.21841042140709935 -0.5564836739761977 209 207 195
-0.15910973017464622 -0.0481209275167726 -0.5835387699492987 115 108 100
0.11181379660323033 -0.06395257991924336 -1.1414720343787859 115 138 156
-3.8788359676046507 6.775882335709535 11.844334700515434 230 235 229
-3.8788359676046507 6.775882335709535 11.844334700515434 230 235 229
-2.0370534340342603 -1.389841647547255 3.8915007425452837 57 58 52
-0.05681721269536539 -0.17452552883626343 -0.5552371145493078 142 150 152
-1.1400016543667526 -0.7365466050941241 1.7726123998924717 35 45 34
-0.8270198244408358 1.145775330298503 1.8196490468477922 177 166 148
0.46469442502351777 0.7585511284115272 -3.272906242638133 133 118 111
-0.08114083470470217 0.04168676768076717 -0.48785028438352235 121 105 90
-0.3868869637107907 0.12237757836239732 1.2773203462211837 63 71 58
0.026935660649404423 0.029530326895799278 -0.6181698346609907 76 45 24
0.09459349810455736 0.8992694025043052 2.293844931429009 149 172 188
1.4970891665100932 1.5488986174697952 5.551015005408282 136 162 179
-0.10626547129820269 0.3076294253865339 1.244308423160584 65 86 81
-0.1193577247241669 -0.4056422570000917 1.997581473364384 165 145 138
-0.11970318438040227 -0.2402159480717492 -0.34859512983572893 64 76 76
0.019461077538266643 0.29167651546780277 0.4876241237637996 67 75 77
0.43300305610884565 0.2534680784225749 -1.76461776834326 88 106 110
0.11728680650581276 -0.022528804486082698 -0.4647320786905623 112 84 60
1.1536941759146566 1.9256254126804389 -9.198598345751545 66 74 76
-1.1638952420705333 0.3073014349615655 3.666111365227236 70 82 70
-0.24183330965477925 0.8392907644273976 1.766675606334078 55 72 79
-0.031158399677990965 -0.154321308952026 -0.31064309457280237 21 27 23
-0.07474477617965868 -0.3210044875971735 -4.363733950448472 99 86 67
0.05916101275362445 -0.09237324199161992 -1.2867231408233857 180 172 149
-0.0019858947741049587 0.08377470926740797 -0.44555192224002405 52 27 7
-0.03412302867148172 0.5502654959990299 0.9143160100790139 20 45 41
-0.009455166561798041 0.05680237398811164 0.14571839554806185 65 90 87
-0.057357241086389364 0.44726504390757643 0.87323616399523 39 49 41
-0.02558101696861999 0.5736252618814421 0.9825630828746454 29 49 47
0.5215903906345256 0.800523620415556 -3.726898497908041 76 100 100
-0.0939043598367141 -0.048049453732385436 0.516838205791802 78 92 92
0.1910054561711391 -0.5318193151889029 -3.033512321098562 49 58 53
0.03435267372243286 -0.14863151428102941 -0.33980286516853353 14 24 34
0.006210641650045798 0.29259817910594693 0.47246537986328674 102 113 115
0.1375502830868987 0.09372353857360345 -0.6181942294595336 61 66 72
0.06036039338908362 -0.10738860970282764 -1.3909187886349523 101 124 138
-0.12269235304850047 0.9595307983481058 2.165127286305511 37 57 56
-0.029524734129711905 -0.12742525542451805 -1.3975656573255792 172 163 146
-0.034946611985611484 0.2375165767062723 0.45075406247725636 65 73 75
0.06725949929099928 -0.13485307101802252 -0.6325861982869689 39 48 47
-0.12166065478217673 -0.098977766830062 -0.4298221077928988 56 67 61
0.006237040542822497 0.7987008765678836 1.7846014022280448 137 156 170
0.027280171584496776 -0.23809412637794417 -0.3947970748632758 99 110 112
-0.9128829658760419 0.23010910703544998 1.4021170885762873 138 121 103
0.00048213086176870066 0.3125783555094628 0.7020308154917039 50 58 61
